HIERARCHY
ROOT Hips
{
	OFFSET 0.000000 35.082581 0.000000
	CHANNELS 6 Xposition Yposition Zposition Xrotation Yrotation Zrotation 
	JOINT Spine
	{
		OFFSET 0.000000 6.876099 0.125700
		CHANNELS 3 Xrotation Yrotation Zrotation
		JOINT Spine1
		{
			OFFSET 0.000000 5.730043 0.104720
			CHANNELS 3 Xrotation Yrotation Zrotation
			JOINT Spine1_split
			{
				OFFSET 0.000000 5.730043 0.104720
				CHANNELS 3 Xrotation Yrotation Zrotation
				JOINT Spine2
				{
					OFFSET 0.000000 5.730043 0.104720
					CHANNELS 3 Xrotation Yrotation Zrotation
					JOINT Neck
					{
						OFFSET 0.000000 10.314075 0.188496
						CHANNELS 3 Xrotation Yrotation Zrotation
						JOINT Head
						{
							OFFSET 0.000000 7.643700 -2.377400
							CHANNELS 3 Xrotation Yrotation Zrotation
							JOINT HeadTop_End
							{
								OFFSET 0.000000 43.788605 -13.619600
								CHANNELS 3 Xrotation Yrotation Zrotation
								End Site
								{
									OFFSET 0.000000 0.000000 0.000000
								}
							}
						}
					}
					JOINT LeftShoulder
					{
						OFFSET 2.196100 4.412489 0.087492
						CHANNELS 3 Xrotation Yrotation Zrotation
						JOINT LeftShoulder_split
						{
							OFFSET 2.196100 4.412489 0.087492
							CHANNELS 3 Xrotation Yrotation Zrotation
							JOINT LeftArm
							{
								OFFSET 8.771219 -2.981674 -0.026999
								CHANNELS 3 Xrotation Yrotation Zrotation
								JOINT LeftForeArm
								{
									OFFSET 8.512804 0.000000 -0.000000
									CHANNELS 3 Xrotation Yrotation Zrotation
									JOINT LeftHand
									{
										OFFSET 18.484802 0.000000 -0.000000
										CHANNELS 3 Xrotation Yrotation Zrotation
										JOINT LeftHandThumb1
										{
											OFFSET 2.499420 -1.158070 2.653252
											CHANNELS 3 Xrotation Yrotation Zrotation
											JOINT LeftHandThumb2
											{
												OFFSET 2.370079 -1.368366 1.368366
												CHANNELS 3 Xrotation Yrotation Zrotation
												JOINT LeftHandThumb3
												{
													OFFSET 2.676727 -1.545410 1.545409
													CHANNELS 3 Xrotation Yrotation Zrotation
													JOINT LeftHandThumb4
													{
														OFFSET 1.692226 -0.977005 0.977007
														CHANNELS 3 Xrotation Yrotation Zrotation
														End Site
														{
															OFFSET 0.000000 0.000000 0.000000
														}
													}
												}
											}
										}
										JOINT LeftHandIndex1
										{
											OFFSET 7.924831 -0.457527 2.345128
											CHANNELS 3 Xrotation Yrotation Zrotation
											JOINT LeftHandIndex2
											{
												OFFSET 3.643303 0.000000 0.000000
												CHANNELS 3 Xrotation Yrotation Zrotation
												JOINT LeftHandIndex3
												{
													OFFSET 3.810799 0.000000 0.000000
													CHANNELS 3 Xrotation Yrotation Zrotation
													JOINT LeftHandIndex4
													{
														OFFSET 2.403702 0.000000 0.000000
														CHANNELS 3 Xrotation Yrotation Zrotation
														End Site
														{
															OFFSET 0.000000 0.000000 0.000000
														}
													}
												}
											}
										}
										JOINT LeftHandMiddle1
										{
											OFFSET 8.563995 0.000000 -0.000000
											CHANNELS 3 Xrotation Yrotation Zrotation
											JOINT LeftHandMiddle2
											{
												OFFSET 3.861618 0.000000 0.000000
												CHANNELS 3 Xrotation Yrotation Zrotation
												JOINT LeftHandMiddle3
												{
													OFFSET 3.701603 0.000000 0.000000
													CHANNELS 3 Xrotation Yrotation Zrotation
													JOINT LeftHandMiddle4
													{
														OFFSET 2.322544 0.000000 0.000000
														CHANNELS 3 Xrotation Yrotation Zrotation
														End Site
														{
															OFFSET 0.000000 0.000000 0.000000
														}
													}
												}
											}
										}
										JOINT LeftHandRing1
										{
											OFFSET 8.426460 -0.424637 -3.286992
											CHANNELS 3 Xrotation Yrotation Zrotation
											JOINT LeftHandRing2
											{
												OFFSET 3.126408 0.000000 0.000000
												CHANNELS 3 Xrotation Yrotation Zrotation
												JOINT LeftHandRing3
												{
													OFFSET 3.085026 0.000000 0.000000
													CHANNELS 3 Xrotation Yrotation Zrotation
													JOINT LeftHandRing4
													{
														OFFSET 1.644005 0.000000 0.000000
														CHANNELS 3 Xrotation Yrotation Zrotation
														End Site
														{
															OFFSET 0.000000 0.000000 0.000000
														}
													}
												}
											}
										}
									}
								}
							}
						}
					}
					JOINT RightShoulder
					{
						OFFSET -2.196100 4.412496 0.070690
						CHANNELS 3 Xrotation Yrotation Zrotation
						JOINT RightShoulder_split
						{
							OFFSET -2.196100 4.412496 0.070690
							CHANNELS 3 Xrotation Yrotation Zrotation
							JOINT RightArm
							{
								OFFSET -8.771282 -2.981682 -0.094208
								CHANNELS 3 Xrotation Yrotation Zrotation
								JOINT RightForeArm
								{
									OFFSET -8.494598 0.000000 0.000000
									CHANNELS 3 Xrotation Yrotation Zrotation
									JOINT RightHand
									{
										OFFSET -18.483803 0.000000 0.000001
										CHANNELS 3 Xrotation Yrotation Zrotation
										JOINT RightHandThumb1
										{
											OFFSET -2.527351 -1.008072 2.575253
											CHANNELS 3 Xrotation Yrotation Zrotation
											JOINT RightHandThumb2
											{
												OFFSET -2.321518 -1.340328 1.340329
												CHANNELS 3 Xrotation Yrotation Zrotation
												JOINT RightHandThumb3
												{
													OFFSET -2.657753 -1.534454 1.534455
													CHANNELS 3 Xrotation Yrotation Zrotation
													JOINT RightHandThumb4
													{
														OFFSET -1.807510 -1.043568 1.043567
														CHANNELS 3 Xrotation Yrotation Zrotation
														End Site
														{
															OFFSET 0.000000 0.000000 0.000000
														}
													}
												}
											}
										}
										JOINT RightHandIndex1
										{
											OFFSET -8.811420 0.015533 2.887987
											CHANNELS 3 Xrotation Yrotation Zrotation
											JOINT RightHandIndex2
											{
												OFFSET -3.537502 0.000000 0.000000
												CHANNELS 3 Xrotation Yrotation Zrotation
												JOINT RightHandIndex3
												{
													OFFSET -3.356201 0.000000 0.000000
													CHANNELS 3 Xrotation Yrotation Zrotation
													JOINT RightHandIndex4
													{
														OFFSET -1.933098 0.000000 0.000000
														CHANNELS 3 Xrotation Yrotation Zrotation
														End Site
														{
															OFFSET 0.000000 0.000000 0.000000
														}
													}
												}
											}
										}
										JOINT RightHandMiddle1
										{
											OFFSET -8.178135 0.000000 0.000000
											CHANNELS 3 Xrotation Yrotation Zrotation
											JOINT RightHandMiddle2
											{
												OFFSET -3.901302 0.000000 0.000000
												CHANNELS 3 Xrotation Yrotation Zrotation
												JOINT RightHandMiddle3
												{
													OFFSET -3.909599 0.000000 0.000000
													CHANNELS 3 Xrotation Yrotation Zrotation
													JOINT RightHandMiddle4
													{
														OFFSET -2.376003 0.000000 0.000000
														CHANNELS 3 Xrotation Yrotation Zrotation
														End Site
														{
															OFFSET 0.000000 0.000000 0.000000
														}
													}
												}
											}
										}
										JOINT RightHandRing1
										{
											OFFSET -7.559013 0.014137 -2.865403
											CHANNELS 3 Xrotation Yrotation Zrotation
											JOINT RightHandRing2
											{
												OFFSET -3.449306 0.000000 0.000000
												CHANNELS 3 Xrotation Yrotation Zrotation
												JOINT RightHandRing3
												{
													OFFSET -3.362106 0.000000 0.000000
													CHANNELS 3 Xrotation Yrotation Zrotation
													JOINT RightHandRing4
													{
														OFFSET -2.076401 0.000000 0.000000
														CHANNELS 3 Xrotation Yrotation Zrotation
														End Site
														{
															OFFSET 0.000000 0.000000 0.000000
														}
													}
												}
											}
										}
									}
								}
							}
						}
					}
				}
			}
		}
	}
	JOINT LeftUpLeg
	{
		OFFSET 10.205400 -3.823500 0.155100
		CHANNELS 3 Xrotation Yrotation Zrotation
		JOINT LeftLeg
		{
			OFFSET 0.708757 -12.982077 0.567790
			CHANNELS 3 Xrotation Yrotation Zrotation
			JOINT LeftFoot
			{
				OFFSET -0.708756 -10.717838 -2.184338
				CHANNELS 3 Xrotation Yrotation Zrotation
				JOINT LeftToeBase
				{
					OFFSET 0.108149 -7.191104 7.560241
					CHANNELS 3 Xrotation Yrotation Zrotation
					JOINT LeftToe_End
					{
						OFFSET 0.070230 0.081724 4.490308
						CHANNELS 3 Xrotation Yrotation Zrotation
						End Site
						{
							OFFSET 0.000000 0.000000 0.000000
						}
					}
				}
			}
		}
	}
	JOINT RightUpLeg
	{
		OFFSET -10.205400 -3.823500 0.005500
		CHANNELS 3 Xrotation Yrotation Zrotation
		JOINT RightLeg
		{
			OFFSET -0.708756 -12.982134 0.610632
			CHANNELS 3 Xrotation Yrotation Zrotation
			JOINT RightFoot
			{
				OFFSET 0.708754 -10.717769 -1.945823
				CHANNELS 3 Xrotation Yrotation Zrotation
				JOINT RightToeBase
				{
					OFFSET -0.108140 -7.191069 7.372968
					CHANNELS 3 Xrotation Yrotation Zrotation
					JOINT RightToe_End
					{
						OFFSET -0.070227 0.081735 4.479403
						CHANNELS 3 Xrotation Yrotation Zrotation
						End Site
						{
							OFFSET 0.000000 0.000000 0.000000
						}
					}
				}
			}
		}
	}
}
MOTION
Frames: 4
Frame Time: 0.016667
1.694725 32.428032 2.167177 -31.909360 -38.349473 -21.451886 11.172471 -4.838068 -0.918365 3.545656 -2.400649 -0.151372 0.000000 0.000000 0.000000 3.557024 -2.388374 -0.108335 1.348023 0.319783 -0.743109 -7.666567 -1.011472 4.648232 0.000001 0.000002 -0.000000 0.576500 -16.606954 -10.307138 0.000000 0.000000 0.000000 -20.089169 4.591484 -37.031223 0.000010 -67.698875 0.000041 -41.746680 -11.632948 -7.621704 -22.783327 -14.798025 12.273470 3.061423 10.434212 14.851275 3.493393 44.556145 6.590350 0.000001 0.000003 -0.000002 2.077620 -2.776276 26.093713 3.254355 5.245094 -63.613896 1.613345 4.038120 -43.542425 -0.000001 -0.000001 -0.000002 -0.902187 3.834332 20.965933 2.978803 5.099705 -60.557892 3.257263 5.246507 -63.645424 0.000000 0.000000 -0.000001 -6.120869 13.236924 27.840230 3.788287 5.476569 -69.323695 1.278673 3.654658 -38.556544 0.000000 -0.000000 -0.000001 0.014995 14.189120 15.480057 0.000000 0.000000 0.000000 -11.472622 -5.400282 60.640387 -0.000002 39.601047 -0.000009 -3.018896 -4.350298 23.974268 -20.073125 16.089506 -24.921337 8.794329 -40.952779 -1.386071 -0.282940 -28.729077 -23.321199 0.000004 0.000003 -0.000003 1.096412 -5.220422 38.986324 3.071109 -4.379332 70.068527 0.158019 1.204135 -14.952693 0.000002 -0.000000 0.000000 2.986213 -6.607886 70.685191 0.640896 -2.359629 30.386753 0.145850 1.157600 -14.362030 -0.000002 0.000002 0.000001 5.905017 -7.187164 80.752937 0.324125 -1.708691 21.480960 0.002684 -0.158674 1.948207 -0.000001 -0.000002 -0.000000 0.832958 12.294734 3.425642 38.152918 -2.416448 -5.167507 -15.820757 8.580759 7.657784 -0.467990 -0.000223 0.017389 -0.000000 -0.000000 0.000000 18.825477 -8.832179 -9.806468 32.038232 6.100826 -5.817127 -24.669106 -13.468258 7.138487 0.285683 -0.001677 0.351120 0.000000 -0.000003 -0.000000 
1.841045 32.442142 2.273697 -32.423857 -39.364931 -22.277033 11.172856 -4.837489 -0.913467 3.545657 -2.400649 -0.151373 0.000000 0.000000 0.000000 3.557024 -2.388375 -0.108335 1.314814 0.322533 -0.750641 -7.907085 -0.936232 4.513184 -0.000001 -0.000001 -0.000000 0.579605 -16.606980 -10.288898 0.000000 0.000000 0.000000 -19.994009 4.524820 -36.978631 0.000007 -67.695186 0.000013 -41.851465 -11.691143 -7.561888 -22.783327 -14.798028 12.273467 3.079716 10.434815 14.836317 3.510070 44.557562 6.575780 -0.000001 0.000000 0.000003 2.045404 -2.802589 26.067089 3.253655 5.244746 -63.605973 1.613342 4.038121 -43.542425 -0.000001 0.000000 0.000003 -0.893472 3.814329 20.948168 2.979448 5.100068 -60.565118 3.259691 5.247715 -63.671966 -0.000000 0.000001 0.000000 -6.128914 13.260724 27.829039 3.784886 5.475291 -69.288335 1.278674 3.654659 -38.556544 -0.000000 -0.000000 0.000003 0.007992 14.220999 15.529832 0.000000 0.000000 0.000000 -11.429890 -5.404788 60.569947 0.000006 39.667205 -0.000012 -3.063963 -4.381514 23.963522 -20.073123 16.089503 -24.921335 8.794328 -40.952769 -1.386064 -0.303347 -28.706650 -23.353351 0.000002 0.000000 0.000003 1.106976 -5.237066 39.169707 3.083385 -4.383754 70.229439 0.158035 1.204112 -14.952657 0.000002 0.000002 -0.000001 2.981891 -6.606626 70.757871 0.640850 -2.359567 30.385965 0.145789 1.157355 -14.359020 0.000002 -0.000001 -0.000001 5.895830 -7.186282 80.734762 0.324329 -1.709202 21.487804 0.002687 -0.158674 1.948209 -0.000002 0.000000 0.000000 1.258112 12.524701 3.261781 38.136515 -2.933584 -5.636821 -16.428726 9.876956 8.724820 -0.342570 0.003320 -0.292504 0.000000 -0.000000 0.000000 18.349105 -8.724522 -10.025079 32.222415 5.648995 -6.023963 -24.152497 -13.665152 7.532920 0.223814 -0.001369 0.313093 0.000000 -0.000002 -0.000000 
1.985679 32.453865 2.385595 -32.965317 -40.374980 -23.124789 11.173100 -4.836343 -0.910267 3.545658 -2.400647 -0.151372 0.000000 0.000000 0.000000 3.557025 -2.388375 -0.108335 1.278868 0.332798 -0.774660 -8.164866 -0.794798 4.357011 -0.000000 0.000001 -0.000001 0.580759 -16.582646 -10.279769 0.000000 0.000000 0.000000 -19.895788 4.421330 -36.921793 0.000013 -67.679457 0.000014 -41.961062 -11.751895 -7.500594 -22.783325 -14.798023 12.273463 3.099914 10.435470 14.819798 3.510863 44.557490 6.573918 -0.000001 0.000001 -0.000002 2.025256 -2.817830 26.042789 3.253560 5.244712 -63.605003 1.613345 4.038121 -43.542429 -0.000000 -0.000001 -0.000002 -0.885642 3.795376 20.937786 2.979679 5.100190 -60.567795 3.261649 5.248690 -63.693310 -0.000000 -0.000000 0.000000 -6.132734 13.270828 27.825646 3.782929 5.474560 -69.267844 1.278674 3.654659 -38.556544 -0.000000 0.000000 0.000001 0.005035 14.258408 15.543502 0.000000 0.000000 0.000000 -11.398955 -5.416187 60.537510 -0.000036 39.702930 0.000041 -3.105284 -4.392580 23.950454 -20.073120 16.089506 -24.921333 8.794324 -40.952769 -1.386069 -0.311584 -28.697559 -23.366349 -0.000000 -0.000002 0.000005 1.117288 -5.251219 39.338352 3.100176 -4.389736 70.448852 0.158027 1.204123 -14.952654 -0.000003 -0.000001 0.000002 2.976172 -6.604914 70.820531 0.641040 -2.359870 30.390305 0.145758 1.157185 -14.356877 -0.000003 -0.000001 0.000001 5.886036 -7.185527 80.710870 0.324531 -1.709664 21.493816 0.002684 -0.158677 1.948209 0.000001 -0.000002 0.000001 1.809837 12.782498 2.913383 37.951762 -3.358612 -5.980014 -17.266908 11.119889 10.074725 -0.016681 0.003823 -0.516108 0.000000 -0.000001 -0.000000 17.842722 -8.724245 -10.337603 32.458855 5.787088 -6.078703 -23.516978 -14.512723 7.822436 0.080969 -0.001252 0.301792 0.000000 0.000000 -0.000000 
2.133814 32.462296 2.512393 -33.535320 -41.379407 -23.996498 11.173206 -4.834092 -0.909003 3.545657 -2.400647 -0.151372 0.000000 0.000000 0.000000 3.557025 -2.388376 -0.108335 1.244412 0.349214 -0.810672 -8.403960 -0.613167 4.203383 0.000000 0.000002 -0.000000 0.581061 -16.531961 -10.273103 0.000000 0.000000 0.000000 -19.827100 4.304722 -36.893868 0.000001 -67.649151 0.000015 -42.037827 -11.798966 -7.458925 -22.783329 -14.798023 12.273467 3.120368 10.436112 14.803043 3.500053 44.556418 6.581408 -0.000003 0.000005 -0.000002 2.016335 -2.822807 26.020133 3.253945 5.244889 -63.609354 1.613344 4.038122 -43.542425 0.000000 -0.000001 -0.000002 -0.880724 3.784760 20.924168 2.979470 5.100070 -60.565227 3.263087 5.249394 -63.709273 0.000000 -0.000000 0.000001 -6.133162 13.271887 27.825376 3.781452 5.474027 -69.252476 1.278673 3.654657 -38.556544 0.000001 -0.000000 0.000005 0.004884 14.295171 15.534109 0.000000 0.000000 0.000000 -11.379679 -5.432785 60.532087 0.000010 39.716730 -0.000004 -3.137162 -4.390549 23.938394 -20.073120 16.089499 -24.921332 8.794324 -40.952776 -1.386072 -0.307636 -28.701889 -23.360164 0.000001 -0.000002 -0.000000 1.125950 -5.261650 39.465540 3.114874 -4.394910 70.640535 0.158035 1.204121 -14.952677 0.000001 -0.000000 0.000002 2.971187 -6.603332 70.859593 0.641267 -2.360265 30.395961 0.145724 1.157070 -14.355396 -0.000004 -0.000000 0.000001 5.878799 -7.185205 80.685346 0.324636 -1.709948 21.497590 0.002686 -0.158677 1.948210 -0.000000 0.000000 -0.000001 2.429323 12.989189 2.695760 37.610706 -3.828214 -6.364514 -17.909217 12.463130 10.772779 0.036497 0.004733 -0.575933 0.000000 0.000000 -0.000000 17.521344 -8.836708 -10.516179 32.616394 5.725351 -6.057023 -22.994119 -15.968140 7.794379 -0.019559 -0.000325 0.154144 -0.000000 -0.000000 -0.000000 
